<svg xmlns="http://www.w3.org/2000/svg" viewBox="0 0 100 120" width="100" height="120">
  <!-- Quirrely Icon Dark with Acorn -->
  <path d="M58 112 Q85 98, 94 62 Q100 26, 74 8 Q50 -8, 42 22 Q38 44, 54 60 Q70 78, 62 100 Q58 110, 58 112" fill="#FFFEF9" stroke="#FFF" stroke-width="0.5" opacity="0.95"/>
  <ellipse cx="40" cy="98" rx="22" ry="26" fill="#FFFEF9" stroke="#FFF" stroke-width="0.5" opacity="0.95"/>
  <path d="M20 68 Q12 72, 14 80 Q16 86, 24 88 L32 86" fill="#FFFEF9" stroke="#FFF" stroke-width="0.8" opacity="0.95"/>
  <path d="M60 68 Q68 72, 66 80 Q64 86, 56 88 L48 86" fill="#FFFEF9" stroke="#FFF" stroke-width="0.8" opacity="0.95"/>
  <ellipse cx="28" cy="86" rx="7" ry="5" fill="#FFFEF9" opacity="0.95"/>
  <ellipse cx="52" cy="86" rx="7" ry="5" fill="#FFFEF9" opacity="0.95"/>
  <!-- ACORN -->
  <ellipse cx="40" cy="78" rx="9" ry="4" fill="#E85A5A"/>
  <rect x="38.5" y="74" width="3" height="4" rx="1.5" fill="#D4504A"/>
  <path d="M31 78 Q30 94, 40 99 Q50 94, 49 78 Z" fill="#FF6B6B"/>
  <path d="M34 82 Q33 90, 40 94 Q41 92, 40 82 Z" fill="#FF8E8E" opacity="0.5"/>
  <ellipse cx="40" cy="50" rx="22" ry="20" fill="#FFFEF9" stroke="#FFF" stroke-width="0.5" opacity="0.95"/>
  <ellipse cx="24" cy="30" rx="8" ry="14" fill="#C4B8AC" opacity="0.6"/>
  <ellipse cx="56" cy="30" rx="8" ry="14" fill="#C4B8AC" opacity="0.6"/>
  <ellipse cx="32" cy="48" rx="5.5" ry="6" fill="#1a1a1a"/>
  <ellipse cx="48" cy="48" rx="5.5" ry="6" fill="#1a1a1a"/>
  <circle cx="33" cy="46.5" r="2" fill="#FFF"/>
  <circle cx="49" cy="46.5" r="2" fill="#FFF"/>
  <ellipse cx="40" cy="60" rx="4.5" ry="3.5" fill="#3A3A3A"/>
</svg>
