<svg xmlns="http://www.w3.org/2000/svg" viewBox="0 0 100 120" width="100" height="120">
  <!-- Quirrely 404 - Sad Squirrel (no acorn) -->
  <path d="M58 112 Q85 98, 94 62 Q100 26, 74 8 Q50 -8, 42 22 Q38 44, 54 60 Q70 78, 62 100" fill="#FFFEF9" stroke="#E0DBD5" stroke-width="1.2" opacity="0.7"/>
  <ellipse cx="40" cy="98" rx="22" ry="26" fill="#FFFEF9" stroke="#E0DBD5" stroke-width="1.2" opacity="0.7"/>
  <ellipse cx="28" cy="86" rx="7" ry="5" fill="#FFFEF9" opacity="0.7"/>
  <ellipse cx="52" cy="86" rx="7" ry="5" fill="#FFFEF9" opacity="0.7"/>
  <!-- Empty paws - no nut -->
  <ellipse cx="40" cy="50" rx="22" ry="20" fill="#FFFEF9" stroke="#E0DBD5" stroke-width="1.2"/>
  <ellipse cx="24" cy="30" rx="8" ry="14" fill="#D4CCC4" opacity="0.5"/>
  <ellipse cx="56" cy="30" rx="8" ry="14" fill="#D4CCC4" opacity="0.5"/>
  <ellipse cx="32" cy="48" rx="5.5" ry="6" fill="#1a1a1a"/>
  <ellipse cx="48" cy="48" rx="5.5" ry="6" fill="#1a1a1a"/>
  <circle cx="33" cy="46.5" r="2" fill="#FFF"/>
  <circle cx="49" cy="46.5" r="2" fill="#FFF"/>
  <ellipse cx="40" cy="60" rx="4.5" ry="3.5" fill="#4A4A4A"/>
  <!-- Sad mouth -->
  <path d="M37 66 Q40 63, 43 66" stroke="#C4B8AC" stroke-width="1.5" fill="none"/>
</svg>
