<svg xmlns="http://www.w3.org/2000/svg" viewBox="0 0 1200 630" width="1200" height="630">
  <!-- Quirrely Blog OG Image with Acorn -->
  <rect width="1200" height="630" fill="#FFFBF5"/>
  
  <!-- Header bar -->
  <rect y="0" width="1200" height="80" fill="#FFFFFF"/>
  <g transform="translate(40, 15) scale(0.5)">
    <path d="M58 112 Q85 98, 94 62 Q100 26, 74 8 Q50 -8, 42 22 Q38 44, 54 60 Q70 78, 62 100 Q58 110, 58 112" fill="#FFFEF9" stroke="#E0DBD5" stroke-width="1.4"/>
    <ellipse cx="40" cy="98" rx="22" ry="26" fill="#FFFEF9" stroke="#E0DBD5" stroke-width="1.4"/>
    <!-- Simplified acorn -->
    <ellipse cx="40" cy="78" rx="8" ry="3.5" fill="#E85A5A"/>
    <path d="M32 78 Q31 92, 40 96 Q49 92, 48 78 Z" fill="#FF5C34"/>
    <ellipse cx="40" cy="50" rx="22" ry="20" fill="#FFFEF9" stroke="#E0DBD5" stroke-width="1.4"/>
    <ellipse cx="32" cy="48" rx="5.5" ry="6" fill="#1a1a1a"/>
    <ellipse cx="48" cy="48" rx="5.5" ry="6" fill="#1a1a1a"/>
  </g>
  <text x="100" y="52" font-family="Outfit, system-ui, sans-serif">
    <tspan font-size="28" font-weight="700" fill="#351E28">Quir</tspan><tspan font-size="28" font-weight="700" fill="#FF5C34">rel</tspan><tspan font-style="italic">y</tspan>
  </text>
  <text x="250" y="52" font-family="Outfit, system-ui, sans-serif" font-size="18" fill="#6B5B62">
    Blog
  </text>
  
  <text x="80" y="280" font-family="Outfit, system-ui, sans-serif" font-size="56" font-weight="700" fill="#351E28">
    What Your Sentences
  </text>
  <text x="80" y="350" font-family="Outfit, system-ui, sans-serif" font-size="56" font-weight="700" fill="#351E28">
    Reveal About You
  </text>
  
  <text x="80" y="420" font-family="Outfit, system-ui, sans-serif" font-size="24" fill="#6B5B62">
    The curious way to find your writing voice.
  </text>
  
  <text x="80" y="560" font-family="Outfit, system-ui, sans-serif" font-size="18" fill="#AEB8A0">
    quirrely.com/blog
  </text>
</svg>
