<svg xmlns="http://www.w3.org/2000/svg" viewBox="0 0 600 315" width="600" height="315">
  <rect width="600" height="315" fill="#FFFBF5"/>
  <g transform="translate(440, 30) scale(0.5)" opacity="0.15">
    <path d="M58 112 Q85 98, 94 62 Q100 26, 74 8 Q50 -8, 42 22 Q38 44, 54 60 Q70 78, 62 100" fill="#2D3436"/>
    <ellipse cx="40" cy="98" rx="22" ry="26" fill="#2D3436"/>
    <ellipse cx="40" cy="50" rx="22" ry="20" fill="#2D3436"/>
  </g>
  <rect x="30" y="30" width="100" height="28" rx="14" fill="#FF6B6B"/>
  <text x="80" y="49" text-anchor="middle" font-family="system-ui, sans-serif" font-size="12" font-weight="600" fill="#FFFFFF">MY PROFILE</text>
  <text x="30" y="110" font-family="system-ui, sans-serif" font-size="48" font-weight="700" fill="#2D3436">MINIMAL</text>
  <text x="30" y="150" font-family="system-ui, sans-serif" font-size="18" fill="#636E72">Writing Voice Profile</text>
  <rect x="30" y="180" width="540" height="1" fill="#E9ECEF"/>
  <g transform="translate(30, 210)">
    <g transform="scale(0.35)">
      <path d="M58 112 Q85 98, 94 62 Q100 26, 74 8 Q50 -8, 42 22 Q38 44, 54 60 Q70 78, 62 100" fill="#FFFEF9" stroke="#E0DBD5" stroke-width="2"/>
      <ellipse cx="40" cy="98" rx="22" ry="26" fill="#FFFEF9" stroke="#E0DBD5" stroke-width="2"/>
      <ellipse cx="40" cy="78" rx="9" ry="4" fill="#E85A5A"/><path d="M31 78 Q30 94, 40 99 Q50 94, 49 78 Z" fill="#FF6B6B"/>
      <ellipse cx="40" cy="50" rx="22" ry="20" fill="#FFFEF9" stroke="#E0DBD5" stroke-width="2"/>
      <ellipse cx="32" cy="48" rx="5.5" ry="6" fill="#1a1a1a"/>
      <ellipse cx="48" cy="48" rx="5.5" ry="6" fill="#1a1a1a"/>
    </g>
  </g>
  <text x="70" y="260" font-family="system-ui, sans-serif" font-size="20" font-weight="700" fill="#2D3436">Senten<tspan fill="#FF6B6B">se</tspan></text>
  <text x="70" y="285" font-family="system-ui, sans-serif" font-size="14" fill="#636E72">Discover yours → quirrely.com</text>
</svg>
