<svg xmlns="http://www.w3.org/2000/svg" viewBox="0 0 1200 800" width="1200" height="800">
  <defs>
    <!-- Gradients -->
    <linearGradient id="bgGradient" x1="0%" y1="0%" x2="100%" y2="100%">
      <stop offset="0%" style="stop-color:#0a0a12"/>
      <stop offset="100%" style="stop-color:#12121c"/>
    </linearGradient>
    
    <linearGradient id="coreGradient" x1="0%" y1="0%" x2="0%" y2="100%">
      <stop offset="0%" style="stop-color:#FF6B6B"/>
      <stop offset="100%" style="stop-color:#E85A5A"/>
    </linearGradient>
    
    <linearGradient id="metaGradient" x1="0%" y1="0%" x2="0%" y2="100%">
      <stop offset="0%" style="stop-color:#00AAFF"/>
      <stop offset="100%" style="stop-color:#0088CC"/>
    </linearGradient>
    
    <linearGradient id="safetyGradient" x1="0%" y1="0%" x2="0%" y2="100%">
      <stop offset="0%" style="stop-color:#00FF88"/>
      <stop offset="100%" style="stop-color:#00CC6A"/>
    </linearGradient>
    
    <linearGradient id="securityGradient" x1="0%" y1="0%" x2="0%" y2="100%">
      <stop offset="0%" style="stop-color:#9966FF"/>
      <stop offset="100%" style="stop-color:#7744DD"/>
    </linearGradient>
    
    <!-- Glow filters -->
    <filter id="glow" x="-50%" y="-50%" width="200%" height="200%">
      <feGaussianBlur stdDeviation="3" result="blur"/>
      <feMerge>
        <feMergeNode in="blur"/>
        <feMergeNode in="SourceGraphic"/>
      </feMerge>
    </filter>
    
    <filter id="softGlow" x="-20%" y="-20%" width="140%" height="140%">
      <feGaussianBlur stdDeviation="2" result="blur"/>
      <feMerge>
        <feMergeNode in="blur"/>
        <feMergeNode in="SourceGraphic"/>
      </feMerge>
    </filter>
    
    <!-- Arrow marker -->
    <marker id="arrowhead" markerWidth="8" markerHeight="6" refX="8" refY="3" orient="auto">
      <polygon points="0 0, 8 3, 0 6" fill="#666"/>
    </marker>
    
    <marker id="arrowheadGreen" markerWidth="8" markerHeight="6" refX="8" refY="3" orient="auto">
      <polygon points="0 0, 8 3, 0 6" fill="#00FF88"/>
    </marker>
  </defs>
  
  <!-- Background -->
  <rect width="1200" height="800" fill="url(#bgGradient)"/>
  
  <!-- Grid pattern -->
  <g opacity="0.05">
    <pattern id="grid" width="40" height="40" patternUnits="userSpaceOnUse">
      <path d="M 40 0 L 0 0 0 40" fill="none" stroke="#fff" stroke-width="0.5"/>
    </pattern>
    <rect width="1200" height="800" fill="url(#grid)"/>
  </g>
  
  <!-- Title Section -->
  <g transform="translate(600, 45)">
    <!-- Logo squirrel mini -->
    <g transform="translate(-280, -25) scale(0.4)">
      <ellipse cx="40" cy="50" rx="18" ry="16" fill="#FFFEF9" stroke="#E0DBD5" stroke-width="1"/>
      <ellipse cx="32" cy="48" rx="4" ry="4.5" fill="#1a1a1a"/>
      <ellipse cx="48" cy="48" rx="4" ry="4.5" fill="#1a1a1a"/>
      <circle cx="33" cy="46.5" r="1.5" fill="#FFF"/>
      <circle cx="49" cy="46.5" r="1.5" fill="#FFF"/>
      <ellipse cx="40" cy="58" rx="3.5" ry="2.5" fill="#4A4A4A"/>
    </g>
    
    <text x="-170" y="0" fill="#FFFEF9" font-family="system-ui, -apple-system, sans-serif" font-size="32" font-weight="700" letter-spacing="2">LNCP</text>
    <text x="-60" y="0" fill="#00AAFF" font-family="system-ui, -apple-system, sans-serif" font-size="32" font-weight="300">v5.2.0</text>
    <text x="70" y="0" fill="#666" font-family="system-ui, -apple-system, sans-serif" font-size="18" font-weight="400">SQUIRREL NINJA</text>
    <text x="220" y="0" fill="#00FF88" font-family="system-ui, -apple-system, sans-serif" font-size="18" font-weight="600">: SAFETY</text>
  </g>
  
  <!-- Validation Badge -->
  <g transform="translate(1080, 35)">
    <rect x="-60" y="-18" width="120" height="36" rx="18" fill="rgba(0,255,136,0.15)" stroke="#00FF88" stroke-width="1"/>
    <text x="0" y="5" fill="#00FF88" font-family="system-ui" font-size="12" font-weight="600" text-anchor="middle">✓ 100% E2E2E</text>
  </g>
  
  <!-- ============================================ -->
  <!-- MAIN ARCHITECTURE DIAGRAM -->
  <!-- ============================================ -->
  
  <!-- USER INPUT (Top) -->
  <g transform="translate(600, 95)">
    <rect x="-150" y="-20" width="300" height="40" rx="8" fill="rgba(255,255,255,0.05)" stroke="rgba(255,255,255,0.2)" stroke-width="1"/>
    <text x="0" y="6" fill="#FFFEF9" font-family="system-ui" font-size="14" font-weight="500" text-anchor="middle">📝 User Submits Writing Sample</text>
  </g>
  
  <!-- Arrow down -->
  <line x1="600" y1="120" x2="600" y2="150" stroke="#666" stroke-width="2" marker-end="url(#arrowhead)"/>
  
  <!-- ============================================ -->
  <!-- SAFETY LAYER (HALO) -->
  <!-- ============================================ -->
  <g transform="translate(100, 160)">
    <rect x="0" y="0" width="1000" height="90" rx="12" fill="rgba(0,255,136,0.05)" stroke="#00FF88" stroke-width="2"/>
    <text x="20" y="25" fill="#00FF88" font-family="system-ui" font-size="14" font-weight="700">🛡️ SAFETY LAYER (HALO)</text>
    <text x="880" y="25" fill="#00CC6A" font-family="system-ui" font-size="11" font-weight="400">11 Event Types</text>
    
    <!-- HALO Components -->
    <g transform="translate(30, 40)">
      <rect x="0" y="0" width="140" height="40" rx="6" fill="url(#safetyGradient)" opacity="0.3"/>
      <rect x="0" y="0" width="140" height="40" rx="6" fill="none" stroke="#00FF88" stroke-width="1"/>
      <text x="70" y="15" fill="#00FF88" font-family="system-ui" font-size="10" font-weight="600" text-anchor="middle">Content Filter</text>
      <text x="70" y="30" fill="#00CC6A" font-family="system-ui" font-size="9" text-anchor="middle">T1 T2 T3 Tiers</text>
    </g>
    
    <g transform="translate(190, 40)">
      <rect x="0" y="0" width="140" height="40" rx="6" fill="url(#safetyGradient)" opacity="0.3"/>
      <rect x="0" y="0" width="140" height="40" rx="6" fill="none" stroke="#00FF88" stroke-width="1"/>
      <text x="70" y="15" fill="#00FF88" font-family="system-ui" font-size="10" font-weight="600" text-anchor="middle">HALOObserver</text>
      <text x="70" y="30" fill="#00CC6A" font-family="system-ui" font-size="9" text-anchor="middle">Signal Aggregation</text>
    </g>
    
    <g transform="translate(350, 40)">
      <rect x="0" y="0" width="140" height="40" rx="6" fill="url(#safetyGradient)" opacity="0.3"/>
      <rect x="0" y="0" width="140" height="40" rx="6" fill="none" stroke="#00FF88" stroke-width="1"/>
      <text x="70" y="15" fill="#00FF88" font-family="system-ui" font-size="10" font-weight="600" text-anchor="middle">FeedbackLoop</text>
      <text x="70" y="30" fill="#00CC6A" font-family="system-ui" font-size="9" text-anchor="middle">Pattern Learning</text>
    </g>
    
    <g transform="translate(510, 40)">
      <rect x="0" y="0" width="140" height="40" rx="6" fill="url(#safetyGradient)" opacity="0.3"/>
      <rect x="0" y="0" width="140" height="40" rx="6" fill="none" stroke="#00FF88" stroke-width="1"/>
      <text x="70" y="15" fill="#00FF88" font-family="system-ui" font-size="10" font-weight="600" text-anchor="middle">User Scores</text>
      <text x="70" y="30" fill="#00CC6A" font-family="system-ui" font-size="9" text-anchor="middle">0-100 Trust</text>
    </g>
    
    <g transform="translate(670, 40)">
      <rect x="0" y="0" width="140" height="40" rx="6" fill="url(#safetyGradient)" opacity="0.3"/>
      <rect x="0" y="0" width="140" height="40" rx="6" fill="none" stroke="#00FF88" stroke-width="1"/>
      <text x="70" y="15" fill="#00FF88" font-family="system-ui" font-size="10" font-weight="600" text-anchor="middle">CoreBridge</text>
      <text x="70" y="30" fill="#00CC6A" font-family="system-ui" font-size="9" text-anchor="middle">Engine Integration</text>
    </g>
    
    <g transform="translate(830, 40)">
      <rect x="0" y="0" width="140" height="40" rx="6" fill="rgba(0,255,136,0.2)"/>
      <text x="70" y="25" fill="#00FF88" font-family="system-ui" font-size="11" font-weight="600" text-anchor="middle">✓ PASS / ✗ BLOCK</text>
    </g>
  </g>
  
  <!-- Arrow down -->
  <line x1="600" y1="255" x2="600" y2="285" stroke="#666" stroke-width="2" marker-end="url(#arrowhead)"/>
  
  <!-- ============================================ -->
  <!-- CORE ENGINE -->
  <!-- ============================================ -->
  <g transform="translate(100, 295)">
    <rect x="0" y="0" width="400" height="140" rx="12" fill="rgba(255,107,107,0.05)" stroke="#FF6B6B" stroke-width="2"/>
    <text x="20" y="25" fill="#FF6B6B" font-family="system-ui" font-size="14" font-weight="700">🔒 CORE ENGINE v3.8.0</text>
    <text x="330" y="25" fill="#E85A5A" font-family="system-ui" font-size="11" font-weight="400">IMMUTABLE</text>
    
    <!-- Engine components -->
    <g transform="translate(20, 40)">
      <rect x="0" y="0" width="85" height="85" rx="8" fill="url(#coreGradient)" opacity="0.15"/>
      <rect x="0" y="0" width="85" height="85" rx="8" fill="none" stroke="#FF6B6B" stroke-width="1"/>
      <text x="42.5" y="35" fill="#FF6B6B" font-family="system-ui" font-size="24" font-weight="700" text-anchor="middle">50</text>
      <text x="42.5" y="55" fill="#E85A5A" font-family="system-ui" font-size="11" text-anchor="middle">TOKENS</text>
      <text x="42.5" y="72" fill="#FF6B6B" font-family="system-ui" font-size="9" text-anchor="middle" opacity="0.7">Linguistic</text>
    </g>
    
    <g transform="translate(115, 40)">
      <rect x="0" y="0" width="85" height="85" rx="8" fill="url(#coreGradient)" opacity="0.15"/>
      <rect x="0" y="0" width="85" height="85" rx="8" fill="none" stroke="#FF6B6B" stroke-width="1"/>
      <text x="42.5" y="35" fill="#FF6B6B" font-family="system-ui" font-size="24" font-weight="700" text-anchor="middle">40</text>
      <text x="42.5" y="55" fill="#E85A5A" font-family="system-ui" font-size="11" text-anchor="middle">PROFILES</text>
      <text x="42.5" y="72" fill="#FF6B6B" font-family="system-ui" font-size="9" text-anchor="middle" opacity="0.7">Writing Styles</text>
    </g>
    
    <g transform="translate(210, 40)">
      <rect x="0" y="0" width="85" height="85" rx="8" fill="url(#coreGradient)" opacity="0.15"/>
      <rect x="0" y="0" width="85" height="85" rx="8" fill="none" stroke="#FF6B6B" stroke-width="1"/>
      <text x="42.5" y="35" fill="#FF6B6B" font-family="system-ui" font-size="16" font-weight="700" text-anchor="middle">analyze()</text>
      <text x="42.5" y="55" fill="#E85A5A" font-family="system-ui" font-size="11" text-anchor="middle">SCORING</text>
      <text x="42.5" y="72" fill="#FF6B6B" font-family="system-ui" font-size="9" text-anchor="middle" opacity="0.7">Rule-Based</text>
    </g>
    
    <g transform="translate(305, 40)">
      <rect x="0" y="0" width="85" height="85" rx="8" fill="url(#coreGradient)" opacity="0.15"/>
      <rect x="0" y="0" width="85" height="85" rx="8" fill="none" stroke="#FF6B6B" stroke-width="1"/>
      <text x="42.5" y="35" fill="#FF6B6B" font-family="system-ui" font-size="14" font-weight="700" text-anchor="middle">$VALUE</text>
      <text x="42.5" y="55" fill="#E85A5A" font-family="system-ui" font-size="11" text-anchor="middle">ECONOMICS</text>
      <text x="42.5" y="72" fill="#FF6B6B" font-family="system-ui" font-size="9" text-anchor="middle" opacity="0.7">Token Value</text>
    </g>
  </g>
  
  <!-- Arrow from Core to Meta -->
  <path d="M 500 365 L 550 365 L 550 365 L 600 365" fill="none" stroke="#666" stroke-width="2" marker-end="url(#arrowhead)"/>
  
  <!-- ============================================ -->
  <!-- META LAYER -->
  <!-- ============================================ -->
  <g transform="translate(600, 295)">
    <rect x="0" y="0" width="500" height="140" rx="12" fill="rgba(0,170,255,0.05)" stroke="#00AAFF" stroke-width="2"/>
    <text x="20" y="25" fill="#00AAFF" font-family="system-ui" font-size="14" font-weight="700">🧠 META LAYER v5.2.0</text>
    <text x="400" y="25" fill="#0088CC" font-family="system-ui" font-size="11" font-weight="400">Self-Learning</text>
    
    <!-- Meta sections -->
    <g transform="translate(20, 40)">
      <rect x="0" y="0" width="105" height="85" rx="8" fill="url(#metaGradient)" opacity="0.15"/>
      <rect x="0" y="0" width="105" height="85" rx="8" fill="none" stroke="#00AAFF" stroke-width="1"/>
      <text x="52.5" y="25" fill="#00AAFF" font-family="system-ui" font-size="11" font-weight="600" text-anchor="middle">EXPERIENCE</text>
      <text x="52.5" y="45" fill="#0088CC" font-family="system-ui" font-size="9" text-anchor="middle">49 Events</text>
      <text x="52.5" y="60" fill="#0088CC" font-family="system-ui" font-size="9" text-anchor="middle">11 States</text>
      <text x="52.5" y="75" fill="#0088CC" font-family="system-ui" font-size="9" text-anchor="middle">4 Tiers</text>
    </g>
    
    <g transform="translate(135, 40)">
      <rect x="0" y="0" width="105" height="85" rx="8" fill="url(#metaGradient)" opacity="0.15"/>
      <rect x="0" y="0" width="105" height="85" rx="8" fill="none" stroke="#00AAFF" stroke-width="1"/>
      <text x="52.5" y="25" fill="#00AAFF" font-family="system-ui" font-size="11" font-weight="600" text-anchor="middle">LEARNING</text>
      <text x="52.5" y="45" fill="#0088CC" font-family="system-ui" font-size="9" text-anchor="middle">Outcomes</text>
      <text x="52.5" y="60" fill="#0088CC" font-family="system-ui" font-size="9" text-anchor="middle">Predictions</text>
      <text x="52.5" y="75" fill="#0088CC" font-family="system-ui" font-size="9" text-anchor="middle">Feedback</text>
    </g>
    
    <g transform="translate(250, 40)">
      <rect x="0" y="0" width="105" height="85" rx="8" fill="url(#metaGradient)" opacity="0.15"/>
      <rect x="0" y="0" width="105" height="85" rx="8" fill="none" stroke="#00AAFF" stroke-width="1"/>
      <text x="52.5" y="25" fill="#00AAFF" font-family="system-ui" font-size="11" font-weight="600" text-anchor="middle">OPTIMIZE</text>
      <text x="52.5" y="45" fill="#0088CC" font-family="system-ui" font-size="9" text-anchor="middle">Trust Store</text>
      <text x="52.5" y="60" fill="#0088CC" font-family="system-ui" font-size="9" text-anchor="middle">Proposals</text>
      <text x="52.5" y="75" fill="#0088CC" font-family="system-ui" font-size="9" text-anchor="middle">Auto-Apply</text>
    </g>
    
    <g transform="translate(365, 40)">
      <rect x="0" y="0" width="115" height="85" rx="8" fill="url(#metaGradient)" opacity="0.15"/>
      <rect x="0" y="0" width="115" height="85" rx="8" fill="none" stroke="#00AAFF" stroke-width="1"/>
      <text x="57.5" y="25" fill="#00AAFF" font-family="system-ui" font-size="11" font-weight="600" text-anchor="middle">INTEGRATE</text>
      <text x="57.5" y="45" fill="#0088CC" font-family="system-ui" font-size="9" text-anchor="middle">Stripe*</text>
      <text x="57.5" y="60" fill="#0088CC" font-family="system-ui" font-size="9" text-anchor="middle">GSC*</text>
      <text x="57.5" y="75" fill="#0088CC" font-family="system-ui" font-size="9" text-anchor="middle">Alerting</text>
    </g>
  </g>
  
  <!-- Arrow down to Command Center -->
  <line x1="600" y1="440" x2="600" y2="470" stroke="#666" stroke-width="2" marker-end="url(#arrowhead)"/>
  
  <!-- ============================================ -->
  <!-- COMMAND CENTER (4 Domains) -->
  <!-- ============================================ -->
  <g transform="translate(100, 480)">
    <rect x="0" y="0" width="1000" height="130" rx="12" fill="rgba(255,255,255,0.03)" stroke="rgba(255,255,255,0.3)" stroke-width="1"/>
    <text x="20" y="25" fill="#FFFEF9" font-family="system-ui" font-size="14" font-weight="700">🎛️ COMMAND CENTER</text>
    <text x="860" y="25" fill="#888" font-family="system-ui" font-size="11" font-weight="400">Virtuous Cycle Control</text>
    
    <!-- 4 Domain Cards -->
    <g transform="translate(20, 40)">
      <rect x="0" y="0" width="230" height="75" rx="8" fill="rgba(255,170,0,0.1)" stroke="#FFAA00" stroke-width="1"/>
      <text x="15" y="25" fill="#FFAA00" font-family="system-ui" font-size="13" font-weight="600">📊 USER EXPERIENCE</text>
      <text x="15" y="45" fill="#CC8800" font-family="system-ui" font-size="10">Activation • Friction • Engagement</text>
      <text x="15" y="62" fill="#FFAA00" font-family="system-ui" font-size="11" font-weight="500">Target: 30% Activation</text>
    </g>
    
    <g transform="translate(260, 40)">
      <rect x="0" y="0" width="230" height="75" rx="8" fill="rgba(0,170,255,0.1)" stroke="#00AAFF" stroke-width="1"/>
      <text x="15" y="25" fill="#00AAFF" font-family="system-ui" font-size="13" font-weight="600">⚙️ SYSTEM HEALTH</text>
      <text x="15" y="45" fill="#0088CC" font-family="system-ui" font-size="10">Accuracy • Trust • Auto-Apply</text>
      <text x="15" y="62" fill="#00AAFF" font-family="system-ui" font-size="11" font-weight="500">Target: 85% Accuracy</text>
    </g>
    
    <g transform="translate(500, 40)">
      <rect x="0" y="0" width="230" height="75" rx="8" fill="rgba(153,102,255,0.1)" stroke="#9966FF" stroke-width="1"/>
      <text x="15" y="25" fill="#9966FF" font-family="system-ui" font-size="13" font-weight="600">💰 MRR PERFORMANCE</text>
      <text x="15" y="45" fill="#7744DD" font-family="system-ui" font-size="10">Revenue • Conversion • Churn</text>
      <text x="15" y="62" fill="#9966FF" font-family="system-ui" font-size="11" font-weight="500">$16,170 MRR (simulated)</text>
    </g>
    
    <g transform="translate(740, 40)">
      <rect x="0" y="0" width="230" height="75" rx="8" fill="rgba(0,255,136,0.1)" stroke="#00FF88" stroke-width="1"/>
      <text x="15" y="25" fill="#00FF88" font-family="system-ui" font-size="13" font-weight="600">🛡️ SAFETY</text>
      <text x="100" y="25" fill="#00CC6A" font-family="system-ui" font-size="9" font-weight="500">NEW</text>
      <text x="15" y="45" fill="#00CC6A" font-family="system-ui" font-size="10">Pass Rate • Violations • Trust</text>
      <text x="15" y="62" fill="#00FF88" font-family="system-ui" font-size="11" font-weight="500">Target: 98% Safety Score</text>
    </g>
  </g>
  
  <!-- Arrow down to Security -->
  <line x1="600" y1="615" x2="600" y2="645" stroke="#666" stroke-width="2" marker-end="url(#arrowhead)"/>
  
  <!-- ============================================ -->
  <!-- SECURITY LAYER -->
  <!-- ============================================ -->
  <g transform="translate(100, 655)">
    <rect x="0" y="0" width="1000" height="65" rx="12" fill="rgba(153,102,255,0.05)" stroke="#9966FF" stroke-width="2"/>
    <text x="20" y="22" fill="#9966FF" font-family="system-ui" font-size="14" font-weight="700">🔐 SECURITY LAYER</text>
    <text x="920" y="22" fill="#7744DD" font-family="system-ui" font-size="11" font-weight="400">6 Layers</text>
    
    <!-- Security components -->
    <g transform="translate(180, 8)">
      <rect x="0" y="0" width="120" height="48" rx="6" fill="url(#securityGradient)" opacity="0.15"/>
      <text x="60" y="20" fill="#9966FF" font-family="system-ui" font-size="10" font-weight="600" text-anchor="middle">Rotating URL</text>
      <text x="60" y="36" fill="#7744DD" font-family="system-ui" font-size="9" text-anchor="middle">24h Auto</text>
    </g>
    
    <g transform="translate(310, 8)">
      <rect x="0" y="0" width="120" height="48" rx="6" fill="url(#securityGradient)" opacity="0.15"/>
      <text x="60" y="20" fill="#9966FF" font-family="system-ui" font-size="10" font-weight="600" text-anchor="middle">Multi-Factor</text>
      <text x="60" y="36" fill="#7744DD" font-family="system-ui" font-size="9" text-anchor="middle">TOTP + Key</text>
    </g>
    
    <g transform="translate(440, 8)">
      <rect x="0" y="0" width="120" height="48" rx="6" fill="url(#securityGradient)" opacity="0.15"/>
      <text x="60" y="20" fill="#9966FF" font-family="system-ui" font-size="10" font-weight="600" text-anchor="middle">IP Whitelist</text>
      <text x="60" y="36" fill="#7744DD" font-family="system-ui" font-size="9" text-anchor="middle">Tailscale</text>
    </g>
    
    <g transform="translate(570, 8)">
      <rect x="0" y="0" width="120" height="48" rx="6" fill="url(#securityGradient)" opacity="0.15"/>
      <text x="60" y="20" fill="#9966FF" font-family="system-ui" font-size="10" font-weight="600" text-anchor="middle">Audit Log</text>
      <text x="60" y="36" fill="#7744DD" font-family="system-ui" font-size="9" text-anchor="middle">Signed Chain</text>
    </g>
    
    <g transform="translate(700, 8)">
      <rect x="0" y="0" width="120" height="48" rx="6" fill="url(#securityGradient)" opacity="0.15"/>
      <text x="60" y="20" fill="#9966FF" font-family="system-ui" font-size="10" font-weight="600" text-anchor="middle">Alert System</text>
      <text x="60" y="36" fill="#7744DD" font-family="system-ui" font-size="9" text-anchor="middle">SMS+Push</text>
    </g>
    
    <g transform="translate(830, 8)">
      <rect x="0" y="0" width="140" height="48" rx="6" fill="rgba(153,102,255,0.25)"/>
      <text x="70" y="28" fill="#9966FF" font-family="system-ui" font-size="11" font-weight="600" text-anchor="middle">🔒 IP Protected</text>
    </g>
  </g>
  
  <!-- ============================================ -->
  <!-- VIRTUOUS CYCLE ARROW (Right Side) -->
  <!-- ============================================ -->
  <g transform="translate(1120, 400)">
    <path d="M 0 -180 Q 60 -180, 60 -90 Q 60 0, 60 90 Q 60 180, 0 180" 
          fill="none" stroke="url(#safetyGradient)" stroke-width="3" 
          stroke-dasharray="8,4" opacity="0.6"/>
    <polygon points="0,185 8,175 -8,175" fill="#00FF88"/>
    
    <text x="45" y="-140" fill="#00FF88" font-family="system-ui" font-size="9" font-weight="600" transform="rotate(90, 45, -140)">VIRTUOUS</text>
    <text x="45" y="150" fill="#00FF88" font-family="system-ui" font-size="9" font-weight="600" transform="rotate(90, 45, 150)">CYCLE</text>
  </g>
  
  <!-- ============================================ -->
  <!-- SIMULATION FUNNEL (Bottom Section) -->
  <!-- ============================================ -->
  <g transform="translate(100, 730)">
    <rect x="0" y="0" width="1000" height="60" rx="8" fill="rgba(153,102,255,0.03)" stroke="rgba(153,102,255,0.2)" stroke-width="1"/>
    
    <text x="20" y="18" fill="#9966FF" font-family="system-ui" font-size="10" font-weight="600">📊 SIMULATION FUNNEL (MEDIUM SCENARIO @ 87.2% Engine Accuracy)</text>
    
    <!-- Funnel stages -->
    <g transform="translate(30, 30)">
      <rect x="0" y="0" width="100" height="24" rx="4" fill="rgba(255,255,255,0.08)"/>
      <text x="50" y="10" fill="#FFFEF9" font-family="system-ui" font-size="9" font-weight="600" text-anchor="middle">100K</text>
      <text x="50" y="20" fill="#888" font-family="system-ui" font-size="7" text-anchor="middle">Visitors</text>
    </g>
    
    <text x="140" y="42" fill="#666" font-family="system-ui" font-size="12">→</text>
    
    <g transform="translate(155, 30)">
      <rect x="0" y="0" width="100" height="24" rx="4" fill="rgba(255,255,255,0.08)"/>
      <text x="50" y="10" fill="#FFFEF9" font-family="system-ui" font-size="9" font-weight="600" text-anchor="middle">79.9K</text>
      <text x="50" y="20" fill="#888" font-family="system-ui" font-size="7" text-anchor="middle">Analysis #1</text>
    </g>
    
    <text x="265" y="42" fill="#666" font-family="system-ui" font-size="12">→</text>
    
    <g transform="translate(280, 30)">
      <rect x="0" y="0" width="100" height="24" rx="4" fill="rgba(255,255,255,0.08)"/>
      <text x="50" y="10" fill="#FFFEF9" font-family="system-ui" font-size="9" font-weight="600" text-anchor="middle">53.4K</text>
      <text x="50" y="20" fill="#888" font-family="system-ui" font-size="7" text-anchor="middle">Paywall</text>
    </g>
    
    <text x="390" y="42" fill="#666" font-family="system-ui" font-size="12">→</text>
    
    <g transform="translate(405, 30)">
      <rect x="0" y="0" width="100" height="24" rx="4" fill="rgba(255,255,255,0.08)"/>
      <text x="50" y="10" fill="#FFFEF9" font-family="system-ui" font-size="9" font-weight="600" text-anchor="middle">17.3K</text>
      <text x="50" y="20" fill="#888" font-family="system-ui" font-size="7" text-anchor="middle">Auth Done</text>
    </g>
    
    <text x="515" y="42" fill="#666" font-family="system-ui" font-size="12">→</text>
    
    <g transform="translate(530, 30)">
      <rect x="0" y="0" width="100" height="24" rx="4" fill="rgba(0,255,136,0.15)" stroke="#00FF88" stroke-width="1"/>
      <text x="50" y="10" fill="#00FF88" font-family="system-ui" font-size="9" font-weight="700" text-anchor="middle">9,184</text>
      <text x="50" y="20" fill="#00CC6A" font-family="system-ui" font-size="7" text-anchor="middle">Subscribed (9.18%)</text>
    </g>
    
    <text x="640" y="42" fill="#666" font-family="system-ui" font-size="12">→</text>
    
    <g transform="translate(655, 30)">
      <rect x="0" y="0" width="120" height="24" rx="4" fill="rgba(153,102,255,0.2)" stroke="#9966FF" stroke-width="1"/>
      <text x="60" y="10" fill="#9966FF" font-family="system-ui" font-size="9" font-weight="700" text-anchor="middle">$157,729</text>
      <text x="60" y="20" fill="#7744DD" font-family="system-ui" font-size="7" text-anchor="middle">Immediate Revenue</text>
    </g>
    
    <text x="785" y="42" fill="#666" font-family="system-ui" font-size="12">→</text>
    
    <g transform="translate(800, 30)">
      <rect x="0" y="0" width="170" height="24" rx="4" fill="rgba(255,170,0,0.15)" stroke="#FFAA00" stroke-width="1"/>
      <text x="85" y="10" fill="#FFAA00" font-family="system-ui" font-size="9" font-weight="700" text-anchor="middle">$535K LTV → $16K MRR</text>
      <text x="85" y="20" fill="#CC8800" font-family="system-ui" font-size="7" text-anchor="middle">Day 30 Projection</text>
    </g>
  </g>
  
  <!-- Version watermark -->
  <text x="1180" y="795" fill="#333" font-family="system-ui" font-size="9" text-anchor="end">LNCP v5.2.0 • 2026-02-15 • Rule-based scoring (no AI)</text>
</svg>
