<svg xmlns="http://www.w3.org/2000/svg" viewBox="0 0 1200 630" width="1200" height="630">
  <!-- Quirrely OG Image with Acorn -->
  <rect width="1200" height="630" fill="#FFFBF5"/>
  <defs>
    <pattern id="dots" x="0" y="0" width="40" height="40" patternUnits="userSpaceOnUse">
      <circle cx="20" cy="20" r="1" fill="#EAF5FF" opacity="0.5"/>
    </pattern>
  </defs>
  <rect width="1200" height="630" fill="url(#dots)"/>
  
  <!-- Squirrel with Acorn -->
  <g transform="translate(80, 80) scale(3.2)">
    <path d="M58 112 Q85 98, 94 62 Q100 26, 74 8 Q50 -8, 42 22 Q38 44, 54 60 Q70 78, 62 100 Q58 110, 58 112" fill="#FFFEF9" stroke="#E0DBD5" stroke-width="0.5"/>
    <ellipse cx="40" cy="98" rx="22" ry="26" fill="#FFFEF9" stroke="#E0DBD5" stroke-width="0.5"/>
    <path d="M20 68 Q12 72, 14 80 Q16 86, 24 88 L32 86" fill="#FFFEF9" stroke="#E0DBD5" stroke-width="0.6"/>
    <path d="M60 68 Q68 72, 66 80 Q64 86, 56 88 L48 86" fill="#FFFEF9" stroke="#E0DBD5" stroke-width="0.6"/>
    <ellipse cx="28" cy="86" rx="7" ry="5" fill="#FFFEF9"/>
    <ellipse cx="52" cy="86" rx="7" ry="5" fill="#FFFEF9"/>
    <!-- ACORN -->
    <ellipse cx="40" cy="78" rx="9" ry="4" fill="#E85A5A"/>
    <rect x="38.5" y="74" width="3" height="4" rx="1.5" fill="#D4504A"/>
    <path d="M31 78 Q30 94, 40 99 Q50 94, 49 78 Z" fill="#FF5C34"/>
    <path d="M34 82 Q33 90, 40 94 Q41 92, 40 82 Z" fill="#FF7F5E" opacity="0.5"/>
    <ellipse cx="40" cy="50" rx="22" ry="20" fill="#FFFEF9" stroke="#E0DBD5" stroke-width="0.5"/>
    <ellipse cx="24" cy="30" rx="8" ry="14" fill="#D4CCC4" opacity="0.6"/>
    <ellipse cx="56" cy="30" rx="8" ry="14" fill="#D4CCC4" opacity="0.6"/>
    <ellipse cx="32" cy="48" rx="5.5" ry="6" fill="#1a1a1a"/>
    <ellipse cx="48" cy="48" rx="5.5" ry="6" fill="#1a1a1a"/>
    <circle cx="33" cy="46.5" r="2" fill="#FFF"/>
    <circle cx="49" cy="46.5" r="2" fill="#FFF"/>
    <ellipse cx="40" cy="60" rx="4.5" ry="3.5" fill="#4A4A4A"/>
  </g>
  
  <text x="500" y="250" font-family="Outfit, system-ui, sans-serif">
    <tspan font-size="72" font-weight="700" fill="#351E28">Quir</tspan><tspan font-size="72" font-weight="700" fill="#FF5C34">rel</tspan><tspan font-size="64" font-weight="500" fill="#351E28" font-style="italic">ly</tspan>
  </text>
  
  <text x="500" y="290" font-family="Outfit, system-ui, sans-serif" font-size="20" fill="#6B5B62" font-style="italic">
    (kwir-el-ee)
  </text>
  
  <text x="500" y="355" font-family="Outfit, system-ui, sans-serif" font-size="28" fill="#6B5B62">
    The curious way to find your writing voice.
  </text>
  
  <rect x="500" y="395" width="220" height="56" rx="28" fill="#FF5C34"/>
  <text x="610" y="432" text-anchor="middle" font-family="Outfit, system-ui, sans-serif" font-size="20" font-weight="600" fill="#FFFFFF">
    Try Free →
  </text>
  
  <text x="500" y="560" font-family="Outfit, system-ui, sans-serif" font-size="20" fill="#AEB8A0">
    quirrely.com
  </text>
</svg>
